<svg width="922" height="519" viewBox="0 0 922 519" fill="none" xmlns="http://www.w3.org/2000/svg">
<g clip-path="url(#clip0_10_2)">
<path d="M0 119.21C0 187.999 0.416253 237.926 0.936569 237.187C1.9772 235.831 16.6501 207.23 16.6501 206.49C16.6501 206.244 19.772 199.71 23.5183 192.067C27.3686 184.424 32.3637 173.945 34.653 168.891C36.9424 163.836 41.5212 154.097 44.7472 147.317C47.9731 140.537 53.5926 128.579 57.2348 120.812C60.981 113.046 65.768 103.307 67.9533 99.2387C70.0345 95.1705 72.1158 90.8558 72.428 89.623C72.8442 88.5135 73.3646 87.5273 73.7808 87.5273C74.093 87.5273 77.7352 89.9928 81.6896 93.0748C88.4537 98.1292 95.426 103.184 103.543 109.101C105.416 110.457 114.47 117.361 123.731 124.511C137.78 135.482 140.381 137.825 139.965 140.044C139.653 141.4 137.051 148.673 134.137 156.07C131.224 163.467 127.477 172.836 125.916 176.904C124.356 180.972 121.13 188.985 118.944 194.779C116.655 200.573 113.221 209.449 111.348 214.504C109.474 219.558 105.416 230.16 102.19 237.926C99.0682 245.693 95.7381 254.322 94.6975 257.034C86.3725 279.348 80.5449 293.278 78.4637 295.867C76.7986 297.963 64.4151 301.168 63.3745 299.812C62.9582 299.319 64.8314 293.648 67.537 287.238C70.2427 280.827 77.2149 262.705 83.0424 247.172C93.6569 218.695 105.936 186.273 108.746 179.369C109.474 177.274 111.66 171.726 113.533 167.042C115.302 162.234 117.904 155.7 119.256 152.371C120.609 148.92 121.754 145.591 121.754 144.852C121.754 144.112 118.008 140.783 113.325 137.332C108.746 134.003 103.751 130.305 102.19 129.195C100.629 127.962 98.0275 126.113 96.3625 125.004C94.6975 123.894 90.1187 120.566 86.1643 117.607C82.314 114.648 78.8799 112.183 78.6718 112.183C78.3596 112.183 76.1743 116.498 73.7808 121.675C69.5142 131.168 62.9582 144.482 36.9424 197.738C24.9752 222.27 21.6451 229.174 15.1932 243.351C13.9445 245.939 12.3835 248.405 11.7591 248.652C11.0307 249.021 8.11693 247.542 5.20316 245.446L0 241.625V380.312V519H461H922V259.5V-6.39161e-06H461H0V119.21ZM361.932 72.3641L367.447 78.528L367.135 90.1161L366.823 101.704L359.33 102.074L351.734 102.444V93.3214V84.1988L336.644 67.9261L321.555 51.5301L312.918 60.5294C308.235 65.4606 300.43 73.7202 295.54 78.8979C271.501 104.663 264.217 112.306 257.556 118.963C253.602 122.908 247.774 128.949 244.757 132.4C241.635 135.852 238.617 138.688 237.784 138.688C236.536 138.688 228.939 127.839 228.939 125.99C228.939 125.374 230.188 123.648 231.853 122.045C233.414 120.443 240.282 113.292 247.15 106.019C254.018 98.8689 262.343 90.3627 265.673 87.0342C269.003 83.7057 274.935 77.665 278.785 73.4736C282.532 69.2822 290.128 61.2691 295.54 55.475C300.951 49.681 309.068 40.9282 313.438 35.9971L321.555 26.8745L339.038 46.5991C348.612 57.4475 358.914 69.0356 361.932 72.3641ZM562.045 38.9558C567.977 44.7499 576.614 53.5026 581.193 58.4337C585.772 63.3648 593.472 71.5012 598.363 76.4323C603.254 81.3634 607.417 85.8014 607.521 86.4178C607.729 87.0342 605.128 87.5273 601.798 87.6506C598.468 87.6506 594.097 87.8971 592.016 88.1437C588.998 88.5135 587.645 87.8971 584.211 84.3221C582.026 81.8565 575.782 75.6926 570.37 70.515C550.598 51.4069 547.997 48.5715 544.979 42.5309L541.961 36.4902L546.02 32.5454C548.205 30.3264 550.286 28.4772 550.598 28.3539C550.911 28.3539 556.01 33.1617 562.045 38.9558ZM541.441 44.9964C543.002 48.0784 544.251 51.2836 544.251 52.1465C544.251 53.0095 541.649 55.8449 538.527 58.4337L532.804 63.2415V77.9116V92.4584H525.519C516.674 92.4584 516.986 93.1981 517.402 70.8848L517.714 54.9819L527.08 47.2154C532.283 42.9007 536.966 39.4489 537.486 39.4489C538.111 39.4489 539.776 41.9145 541.441 44.9964ZM821.475 104.663C852.902 132.77 855.92 135.482 877.253 155.947C887.867 166.179 899.21 176.904 902.436 179.986C905.662 183.068 908.576 186.15 908.784 186.889C909.096 187.506 907.327 190.834 904.83 194.286L900.355 200.327L896.192 196.628C890.469 191.451 866.951 169.137 857.481 159.768C853.214 155.577 843.64 146.701 836.148 139.92C807.739 114.402 791.921 99.4853 791.921 98.1292C791.921 96.4033 797.957 85.0617 798.893 85.0617C799.205 85.0617 809.404 93.9377 821.475 104.663ZM648.314 98.7456C648.314 105.896 648.314 105.896 644.984 106.512C643.111 106.882 633.121 107.498 622.818 107.868C612.516 108.238 599.404 109.101 593.681 109.717C587.957 110.334 571.619 111.443 557.259 112.183C543.002 112.923 529.161 113.786 526.56 114.032C508.557 116.128 454.86 119.21 407.928 120.812C388.78 121.552 364.637 122.662 354.335 123.401C344.033 124.141 332.378 124.511 328.319 124.264L321.035 123.894L320.827 116.867C320.723 113.046 321.035 109.471 321.555 109.101C322.18 108.608 337.685 107.498 356.208 106.512C374.628 105.649 397.73 104.293 407.407 103.553C417.189 102.814 441.956 101.458 462.561 100.471C506.788 98.3758 538.215 96.5266 558.299 94.924C566.312 94.1843 582.442 93.0748 594.201 92.4584C605.96 91.7188 622.298 90.7325 630.623 90.2394C639.364 89.623 646.233 89.7463 647.065 90.3627C647.794 91.1023 648.314 94.4309 648.314 98.7456ZM794.627 108.485C797.124 110.58 799.205 113.046 799.205 113.909C799.205 114.772 797.332 118.963 794.939 123.278C792.649 127.593 790.256 132.277 789.736 133.633C789.215 135.113 788.383 137.085 787.863 138.071C787.238 139.057 780.162 153.728 771.941 170.617L757.06 201.19L752.481 200.45C749.984 200.08 746.549 199.71 744.989 199.71C739.993 199.71 738.224 203.902 767.466 146.084C773.606 133.88 780.786 119.58 783.388 114.279C786.094 109.101 788.591 104.786 789.111 104.786C789.632 104.786 792.025 106.512 794.627 108.485ZM635.41 115.635C637.179 117.484 642.798 123.155 647.898 128.209C661.009 141.276 662.883 143.249 662.883 144.358C662.883 144.975 660.905 147.564 658.512 150.276C654.245 155.084 651.019 156.563 650.187 154.221C650.083 153.604 646.128 149.413 641.55 144.852C633.849 137.085 613.973 114.895 613.973 114.032C613.973 113.416 620.009 112.553 626.461 112.429C631.247 112.306 632.704 112.799 635.41 115.635ZM534.156 125.374C535.093 135.976 537.07 232.995 537.278 277.252L537.486 316.085L531.867 320.029C528.745 322.248 525.831 323.851 525.519 323.605C525.103 323.235 524.479 307.332 524.062 288.224C523.334 253.952 522.293 217.462 520.316 153.111C519.692 135.236 519.484 120.073 519.796 119.456C520.212 118.84 523.438 118.347 526.976 118.347H533.636L534.156 125.374ZM367.863 131.044C368.176 133.263 368.592 151.015 368.696 170.74L368.904 206.49L362.452 206.86C357.145 207.107 355.896 206.86 355.064 205.011C354.543 203.778 354.023 192.19 353.815 179.369C353.711 166.425 353.503 150.646 353.295 144.235C352.878 128.209 353.086 127.593 360.995 127.346C367.239 127.223 367.239 127.223 367.863 131.044ZM257.661 142.016C261.095 148.303 268.067 161.864 273.166 172.219C278.369 182.575 288.671 203.039 296.164 217.832C303.656 232.625 312.606 250.254 316.04 257.034C337.997 300.552 352.15 328.166 359.851 342.589C364.742 351.712 368.904 360.218 369.216 361.574C369.737 363.916 369.424 364.04 364.637 363.177C361.828 362.807 353.191 359.971 345.49 357.013C331.649 351.589 327.071 349.739 293.979 335.932C284.821 332.111 267.755 325.207 255.995 320.523C244.236 315.838 226.233 308.565 215.931 304.373L197.2 296.73L189.395 298.209C185.128 298.949 178.052 300.428 173.786 301.414C165.877 303.264 147.249 306.839 129.038 310.044C109.475 313.496 72.3239 320.646 70.763 321.262C69.4102 321.879 61.1892 323.111 33.5084 327.18C27.6808 328.043 22.4777 328.412 21.9573 328.043C21.5411 327.673 20.8126 323.974 20.3964 319.783L19.6679 312.263L32.4677 310.29C39.544 309.058 49.5341 307.702 54.6332 306.962C59.8363 306.346 66.6004 305.236 69.7223 304.496C90.4309 300.182 106.977 296.853 121.754 294.018C126.645 293.155 134.866 291.429 139.965 290.319C160.674 285.881 173.89 283.293 186.273 280.95L199.177 278.608L215.931 285.512C225.089 289.21 243.82 296.976 257.556 302.647C271.293 308.318 290.753 316.331 300.743 320.523C328.319 331.987 337.373 335.439 337.893 334.823C338.309 334.33 335.188 328.043 307.091 273.8C299.598 259.377 293.458 247.295 293.458 247.049C293.458 246.679 292.626 244.953 291.481 243.104C289.712 240.022 271.813 204.148 266.818 193.793C265.673 191.204 262.135 184.547 258.909 178.753C250.376 163.22 241.219 144.358 241.635 143.002C241.947 141.893 250.688 130.675 251.209 130.675C251.417 130.675 254.33 135.729 257.661 142.016ZM642.798 186.15C645.296 186.889 651.852 188.122 657.367 189.108C662.987 190.095 673.913 192.067 681.614 193.423C689.315 194.902 701.074 196.875 707.63 197.861C718.556 199.587 726.153 200.82 761.222 206.614C770.796 208.216 787.03 210.682 811.173 214.134C813.462 214.504 815.647 215.12 815.96 215.613C816.792 216.476 814.399 237.063 808.571 281.074C807.322 290.196 805.657 303.14 804.825 309.797C804.096 316.331 802.952 324.098 802.431 327.056C801.911 329.892 800.975 337.042 800.246 343.082C799.518 349 798.685 354.054 798.269 354.424C797.853 354.671 795.043 352.945 792.129 350.602C787.238 346.781 786.718 345.918 786.718 341.726C786.822 335.193 788.695 319.043 795.147 271.211C798.893 243.104 800.246 231.393 799.83 230.9C799.414 230.406 793.586 229.297 775.271 226.215C769.235 225.229 757.788 223.256 749.775 221.9C741.763 220.544 729.795 218.572 723.239 217.585C706.901 215.12 684.528 211.422 663.507 207.723C653.829 205.997 644.047 204.641 641.758 204.641C637.699 204.641 635.514 206.121 612.932 224.489C611.475 225.599 604.711 230.9 597.843 236.077C590.975 241.378 575.886 253.213 564.335 262.212C552.784 271.335 543.002 278.731 542.586 278.731C542.169 278.608 541.753 274.293 541.753 268.992V259.5L581.817 227.694C603.775 210.189 624.795 193.546 628.542 190.588C635.93 184.547 636.451 184.424 642.798 186.15ZM274.831 219.311C277.12 223.503 278.889 227.324 278.889 227.571C278.889 227.818 251.625 228.064 218.429 228.064H157.864L140.589 248.282C102.398 293.032 101.462 293.895 88.6618 296.483C84.8115 297.223 84.1871 297.1 84.4993 295.374C85.2278 291.182 101.67 269.732 126.125 241.008L151.828 210.805L211.352 211.052L270.877 211.422L274.831 219.311ZM349.444 219.681L349.756 228.064H328.111H306.466L302.616 220.298C300.43 215.983 298.661 212.038 298.661 211.668C298.661 211.175 310.004 210.928 323.949 211.052L349.132 211.422L349.444 219.681ZM475.881 212.901L515.113 213.641V222.147V230.776L436.337 229.913C392.943 229.42 357.145 228.804 356.729 228.434C356.208 228.187 355.896 224.366 355.896 219.928V212.038H396.273C418.542 212.038 454.34 212.408 475.881 212.901ZM742.699 225.229C744.676 226.092 744.468 226.831 739.785 236.447L735.519 245.2L728.338 241.008L721.262 236.694L724.592 229.79L727.922 222.886L734.582 223.749C738.328 224.243 741.867 224.859 742.699 225.229ZM369.841 236.817C370.153 238.913 370.465 247.172 370.465 255.062C370.465 262.952 370.985 288.347 371.61 311.647C372.65 348.63 372.442 359.725 370.777 354.054C370.465 353.191 367.239 346.657 363.597 339.384L356.833 326.193L356.208 279.594L355.584 232.995H362.348C369.112 232.995 369.216 232.995 369.841 236.817ZM671.728 261.966C684.424 271.458 701.49 284.525 711.896 292.785C717.1 296.853 725.737 303.51 731.044 307.578C736.351 311.647 743.219 316.947 746.341 319.413C749.359 321.755 757.684 328.166 764.865 333.467C772.045 338.768 778.497 343.822 779.225 344.685C780.37 345.795 780.474 347.767 779.537 354.424C779.017 358.985 778.289 362.93 778.081 363.3C777.456 363.916 773.19 360.711 730.836 328.043C706.901 309.551 674.33 284.525 663.923 276.759L655.182 270.102L643.631 277.375C637.387 281.32 602.422 302.277 566.104 323.974C498.775 364.04 471.823 380.312 469.637 382.408C468.909 383.024 467.868 383.271 467.348 382.901C465.475 381.545 459.543 368.108 460.584 367.738C461.208 367.491 467.244 363.916 474.112 359.848C480.876 355.657 523.75 330.138 569.226 303.017C614.701 275.896 652.788 252.966 653.933 251.98C656.223 250.131 655.078 249.515 671.728 261.966ZM519.692 280.581C520.004 281.69 520.316 285.758 520.316 289.826C520.316 296.36 520.108 297.223 517.506 299.072C515.841 300.182 509.493 305.113 503.146 310.044C489.305 320.769 484.518 324.221 483.27 324.221C482.125 324.098 475.569 313.742 475.569 312.016C475.569 310.044 495.341 294.141 510.43 284.156C513.448 282.06 516.362 280.087 516.778 279.471C518.027 278.115 518.963 278.485 519.692 280.581ZM78.5677 330.508C71.3874 339.138 64.6232 345.795 63.8948 344.808C63.2704 344.069 66.7045 328.905 67.8492 327.303C68.6817 326.193 78.1515 323.481 82.7303 323.111C84.1871 322.988 83.1465 324.961 78.5677 330.508ZM62.0217 332.481C60.5648 341.85 59.212 344.932 53.8007 350.233C48.1813 355.903 25.2874 381.668 18.4192 390.051L14.5688 394.859L12.1754 392.394C10.9266 391.038 8.84537 388.819 7.59661 387.586C6.24379 386.353 5.20316 384.75 5.20316 384.011C5.20316 382.655 28.3052 355.41 43.6025 338.644C49.326 332.234 52.2397 330.015 55.5698 329.152C62.8542 327.426 62.7501 327.426 62.0217 332.481ZM540.088 354.424V363.67H533.324C529.578 363.67 526.248 363.67 525.831 363.67C525.311 363.67 524.999 361.328 524.999 358.369C524.999 353.191 524.999 353.191 531.763 349.123C535.405 347.027 538.839 345.178 539.256 345.178C539.672 345.178 540.088 349.37 540.088 354.424ZM830.737 385.613C836.356 390.051 841.039 393.996 841.351 394.366C841.871 395.476 834.691 408.05 833.442 408.05C831.569 408.05 786.093 371.56 783.7 368.108C782.659 366.628 783.908 353.684 785.261 351.095C785.573 350.602 793.586 356.396 803.16 363.916C812.734 371.436 825.117 381.175 830.737 385.613ZM59.316 354.424C59.316 356.643 47.765 391.777 40.1684 412.365C39.44 414.337 37.6709 419.268 36.4221 423.09C35.0693 427.035 33.4043 430.24 32.6758 430.24C29.9702 430.24 20.8126 424.569 20.8126 422.967C20.8126 421.98 22.2695 417.542 24.0386 413.104C25.9117 408.666 29.8661 398.064 32.988 389.558C38.8156 373.655 40.3765 371.19 53.3844 357.752C56.9226 354.177 59.316 352.821 59.316 354.424ZM366.823 369.71C379.102 374.395 379.727 375.628 373.067 382.655C370.153 385.737 367.551 388.202 367.239 388.325C366.303 388.325 355.896 368.971 355.896 367.368C355.896 365.642 356.416 365.766 366.823 369.71ZM556.322 465.744C557.467 466.977 559.444 470.552 560.901 473.757C562.358 476.962 563.71 479.551 564.023 479.551C564.335 479.551 566.104 476.223 568.081 472.154C571.619 465.004 573.7 462.785 575.574 464.265C577.343 465.497 576.51 468.333 571.827 477.702C568.081 485.222 567.144 488.181 566.936 493.975C566.624 500.632 566.416 501.125 564.023 501.125C561.629 501.125 561.421 500.755 561.213 494.221C561.109 488.304 558.299 479.674 555.698 477.086C555.385 476.716 554.033 474.373 552.68 471.785C549.037 464.758 551.639 460.566 556.322 465.744ZM701.178 467.47C707.734 471.291 711.688 483.989 708.462 491.016C704.508 499.276 700.449 501.741 690.772 501.741H683.695V483.989C683.695 470.922 684.007 465.99 685.048 465.497C687.025 464.388 698.16 465.867 701.178 467.47ZM186.169 469.196C188.458 471.415 189.395 473.51 189.395 475.976C189.395 477.948 188.979 479.551 188.458 479.551C186.689 479.551 186.169 483.743 187.834 484.729C188.875 485.468 189.395 487.687 189.395 491.139C189.395 498.782 185.961 502.357 178.26 502.357C173.161 502.357 172.225 501.988 169.519 498.413C166.605 494.468 170.744 493.019 171.056 482.171C166.731 470.151 169.207 466.237 178.677 466.114C181.902 465.99 183.776 466.853 186.169 469.196ZM229.147 473.017L229.459 480.167L236.015 480.414L242.467 480.537V473.264V465.867L245.901 466.237L249.231 466.607V483.866V501.125H246.109C242.988 501.125 242.988 501.001 242.675 493.975L242.363 486.948H235.703H228.939V493.605C228.939 500.755 228.107 502.357 224.777 501.125C222.799 500.385 222.695 499.276 222.695 483.989C222.695 474.99 223.007 467.223 223.424 466.853C223.424 466.853 225.193 465.99 226.442 465.99C228.627 465.99 228.835 466.607 229.147 473.017ZM283.468 467.223C290.128 470.182 294.083 480.291 291.689 488.427C287.527 502.974 273.166 506.056 263.8 494.344C260.991 490.893 260.678 489.783 260.886 483.619C261.199 477.825 261.615 476.346 264.737 472.648C266.714 470.305 269.316 467.963 270.668 467.347C273.998 465.744 280.242 465.744 283.468 467.223ZM322.596 468.456C326.342 472.894 327.071 477.086 325.093 482.263C324.157 484.852 322.908 486.948 322.388 486.948C320.931 486.948 321.451 489.29 324.157 494.468C327.071 499.892 326.863 501.741 323.116 501.741C321.243 501.741 320.098 500.632 318.85 497.426C317.601 494.344 316.456 493.112 314.791 493.112C313.438 493.112 311.669 492.742 310.733 492.372C309.588 491.879 309.172 492.742 308.86 496.44C308.651 499.769 308.027 501.248 306.674 501.495C302.616 502.481 301.783 499.769 301.783 484.852C301.783 477.086 302.304 469.689 302.824 468.333C303.761 466.36 305.113 465.99 312.19 465.99C319.162 465.99 320.827 466.36 322.596 468.456ZM355.688 466.73C358.082 467.593 358.706 471.291 357.041 474.497C356.208 475.976 355.792 475.976 354.439 474.743C353.607 473.88 351.317 473.387 349.444 473.634C344.241 474.25 345.074 477.332 351.005 479.305C357.145 481.4 359.538 485.099 358.602 491.262C357.457 498.043 353.399 501.741 347.051 501.741C341.223 501.618 338.518 499.892 338.518 496.194C338.518 491.879 340.183 490.523 342.888 492.619C346.218 495.207 350.069 494.468 350.485 491.139C350.693 489.043 349.965 488.304 346.01 486.948C339.766 484.852 338.205 482.88 338.205 476.962C338.205 469.812 341.744 465.99 348.3 465.99C351.005 465.99 354.335 466.36 355.688 466.73ZM393.359 469.689V473.387H385.034H376.709V477.086V480.784H384.618H392.422L392.11 484.112C391.798 487.441 391.59 487.564 384.305 487.934C377.021 488.304 376.709 488.427 376.709 491.262C376.709 494.098 377.021 494.221 384.826 494.591C392.63 494.961 392.839 495.084 392.839 498.043V501.125H382.432H372.026L371.714 483.496L371.402 465.99H382.432H393.359V469.689ZM421.248 466.73C422.913 467.347 423.537 468.456 423.537 471.045C423.537 474.743 420.415 477.702 419.583 474.867C419.063 472.771 412.09 472.894 412.09 474.99C412.09 477.209 414.276 479.551 416.357 479.551C417.398 479.551 419.583 481.03 421.352 482.756C423.954 485.345 424.578 486.948 424.578 490.646C424.578 494.591 423.954 495.947 421.144 498.536C415.108 503.96 404.806 501.988 404.806 495.454C404.806 491.139 405.534 490.646 408.76 492.619C411.986 494.591 416.045 494.838 418.23 493.235C420.311 491.632 418.958 490.03 413.443 487.564C406.471 484.482 404.806 482.51 404.806 477.086C404.806 472.278 406.159 469.566 409.489 467.47C411.778 465.867 417.502 465.621 421.248 466.73ZM502.625 467.593C506.059 469.689 508.141 474.99 507.308 479.674C506.268 485.222 501.897 489.29 496.173 490.153L491.178 491.016V495.824C491.178 500.138 490.97 500.632 488.889 500.262C486.6 499.892 486.496 499.522 486.183 482.88L485.871 465.99H492.947C496.798 465.99 501.168 466.73 502.625 467.593ZM543.21 469.072C543.21 472.031 542.898 472.154 537.486 472.154H531.763V487.071C531.763 501.741 531.763 501.864 529.474 501.495C527.184 501.125 527.08 500.632 526.768 486.578L526.456 472.154H521.357C516.466 472.154 516.154 471.908 516.154 469.072V465.99H529.682H543.21V469.072ZM626.461 480.167V494.344H633.225H639.989V498.043V501.741H630.727C622.818 501.741 621.466 501.495 621.049 499.522C620.841 498.413 620.841 490.4 621.049 481.647C621.466 466.114 621.466 465.99 623.963 465.99C626.461 465.99 626.461 465.99 626.461 480.167ZM673.289 469.072C673.289 471.908 672.977 472.154 668.086 472.154H662.987L662.674 486.578C662.362 499.645 662.154 501.125 660.385 501.495C657.263 502.234 656.639 499.522 656.639 485.345V472.154H651.956C647.689 472.154 647.273 471.908 647.273 469.072V465.99H660.281H673.289V469.072ZM259.117 480.784C259.117 481.4 258.181 482.017 256.932 482.017C255.787 482.017 255.163 481.4 255.475 480.784C255.787 480.044 256.828 479.551 257.661 479.551C258.493 479.551 259.117 480.044 259.117 480.784Z" fill="black"/>
<rect x="147" y="440" width="585" height="62" fill="black"/>
<path d="M98.22 501.54C92.6467 501.54 87.825 500.55 83.755 498.57C79.7217 496.553 76.605 493.767 74.405 490.21C72.2417 486.653 71.16 482.547 71.16 477.89C71.16 473.27 72.2967 469.218 74.57 465.735C76.8433 462.215 79.9967 459.483 84.03 457.54C88.1 455.56 92.83 454.57 98.22 454.57C103.61 454.57 108.34 455.56 112.41 457.54C116.48 459.483 119.633 462.215 121.87 465.735C124.143 469.218 125.28 473.27 125.28 477.89C125.28 482.547 124.18 486.653 121.98 490.21C119.78 493.767 116.645 496.553 112.575 498.57C108.542 500.55 103.757 501.54 98.22 501.54ZM98.22 489.44C102.693 489.44 106.158 488.303 108.615 486.03C111.072 483.757 112.3 480.75 112.3 477.01C112.3 473.49 111.072 470.575 108.615 468.265C106.158 465.955 102.693 464.8 98.22 464.8C93.7833 464.8 90.3183 465.955 87.825 468.265C85.3683 470.575 84.14 473.49 84.14 477.01C84.14 480.75 85.3683 483.757 87.825 486.03C90.3183 488.303 93.7833 489.44 98.22 489.44ZM98.22 462.6C93.8567 462.6 89.8967 461.738 86.34 460.015C82.7833 458.292 79.9417 455.908 77.815 452.865C75.725 449.785 74.68 446.247 74.68 442.25C74.68 438.877 75.4683 435.595 77.045 432.405C78.6583 429.215 81.1883 426.593 84.635 424.54C88.1183 422.487 92.6467 421.46 98.22 421.46C103.793 421.46 108.267 422.487 111.64 424.54C115.05 426.593 117.507 429.215 119.01 432.405C120.55 435.595 121.32 438.877 121.32 442.25C121.32 446.247 120.367 449.785 118.46 452.865C116.59 455.908 113.913 458.292 110.43 460.015C106.983 461.738 102.913 462.6 98.22 462.6ZM98.22 452.37C101.813 452.37 104.508 451.398 106.305 449.455C108.102 447.475 109 445.11 109 442.36C109 439.427 108.102 437.043 106.305 435.21C104.508 433.377 101.813 432.46 98.22 432.46C94.6633 432.46 91.895 433.377 89.915 435.21C87.9717 437.043 87 439.427 87 442.36C87 445.11 87.9717 447.475 89.915 449.455C91.895 451.398 94.6633 452.37 98.22 452.37ZM164.564 500V423H178.644V453.47H213.844V423H227.924V500H213.844V466.67H178.644V500H164.564ZM266.291 501.1C260.315 501.1 255.218 499.798 251.001 497.195C246.785 494.592 243.558 491.127 241.321 486.8C239.121 482.473 238.021 477.743 238.021 472.61C238.021 467.44 239.121 462.673 241.321 458.31C243.558 453.947 246.785 450.463 251.001 447.86C255.218 445.22 260.315 443.9 266.291 443.9C272.268 443.9 277.365 445.22 281.581 447.86C285.798 450.463 289.006 453.947 291.206 458.31C293.443 462.673 294.561 467.44 294.561 472.61C294.561 477.743 293.443 482.473 291.206 486.8C289.006 491.127 285.798 494.592 281.581 497.195C277.365 499.798 272.268 501.1 266.291 501.1ZM266.291 489.88C270.875 489.88 274.395 488.285 276.851 485.095C279.345 481.868 280.591 477.707 280.591 472.61C280.591 467.44 279.345 463.242 276.851 460.015C274.395 456.752 270.875 455.12 266.291 455.12C261.745 455.12 258.225 456.752 255.731 460.015C253.238 463.242 251.991 467.44 251.991 472.61C251.991 477.707 253.238 481.868 255.731 485.095C258.225 488.285 261.745 489.88 266.291 489.88ZM304.056 500V445H316.816L317.146 450.83C318.539 449.29 320.501 447.75 323.031 446.21C325.561 444.67 328.329 443.9 331.336 443.9C332.216 443.9 333.022 443.973 333.756 444.12L332.766 457.54C331.959 457.32 331.152 457.173 330.346 457.1C329.576 457.027 328.806 456.99 328.036 456.99C325.726 456.99 323.617 457.522 321.711 458.585C319.804 459.648 318.466 460.95 317.696 462.49V500H304.056ZM355.984 501.1C352.354 501.1 349.073 500.752 346.139 500.055C343.243 499.358 340.328 498.35 337.394 497.03L338.604 485.37C341.428 487.02 344.196 488.358 346.909 489.385C349.659 490.375 352.538 490.87 355.544 490.87C358.258 490.87 360.329 490.43 361.759 489.55C363.189 488.67 363.904 487.277 363.904 485.37C363.904 483.94 363.519 482.767 362.749 481.85C362.016 480.933 360.898 480.108 359.394 479.375C357.891 478.642 356.021 477.853 353.784 477.01C350.411 475.763 347.533 474.407 345.149 472.94C342.803 471.473 341.006 469.713 339.759 467.66C338.549 465.57 337.944 463.003 337.944 459.96C337.944 456.807 338.769 454.02 340.419 451.6C342.069 449.18 344.416 447.292 347.459 445.935C350.503 444.578 354.114 443.9 358.294 443.9C361.778 443.9 364.894 444.285 367.644 445.055C370.431 445.825 372.998 446.87 375.344 448.19L374.134 459.85C371.678 458.127 369.203 456.715 366.709 455.615C364.216 454.478 361.484 453.91 358.514 453.91C356.168 453.91 354.353 454.387 353.069 455.34C351.786 456.293 351.144 457.65 351.144 459.41C351.144 461.537 352.043 463.132 353.839 464.195C355.636 465.258 358.514 466.56 362.474 468.1C365.041 469.09 367.259 470.117 369.129 471.18C371.036 472.243 372.613 473.417 373.859 474.7C375.106 475.983 376.023 477.45 376.609 479.1C377.233 480.713 377.544 482.583 377.544 484.71C377.544 488.193 376.701 491.163 375.014 493.62C373.364 496.04 370.926 497.892 367.699 499.175C364.509 500.458 360.604 501.1 355.984 501.1ZM413.388 501.1C406.751 501.1 401.215 499.78 396.778 497.14C392.378 494.463 389.078 490.943 386.878 486.58C384.678 482.18 383.578 477.377 383.578 472.17C383.578 467.147 384.605 462.508 386.658 458.255C388.748 454.002 391.791 450.592 395.788 448.025C399.785 445.422 404.661 444.12 410.418 444.12C415.698 444.12 420.098 445.202 423.618 447.365C427.138 449.528 429.778 452.425 431.538 456.055C433.298 459.648 434.178 463.627 434.178 467.99C434.178 469.2 434.105 470.428 433.958 471.675C433.811 472.885 433.591 474.15 433.298 475.47H397.768C398.281 478.88 399.345 481.648 400.958 483.775C402.608 485.865 404.606 487.405 406.953 488.395C409.336 489.385 411.885 489.88 414.598 489.88C417.788 489.88 420.758 489.477 423.508 488.67C426.258 487.827 428.788 486.727 431.098 485.37L431.758 496.92C429.668 498.02 427.065 498.992 423.948 499.835C420.831 500.678 417.311 501.1 413.388 501.1ZM398.098 466.23H420.318C420.318 464.58 420.006 462.93 419.383 461.28C418.76 459.593 417.715 458.182 416.248 457.045C414.818 455.908 412.875 455.34 410.418 455.34C406.898 455.34 404.13 456.367 402.113 458.42C400.096 460.473 398.758 463.077 398.098 466.23ZM459.109 501.1C455.479 501.1 452.198 500.752 449.264 500.055C446.368 499.358 443.453 498.35 440.519 497.03L441.729 485.37C444.553 487.02 447.321 488.358 450.034 489.385C452.784 490.375 455.663 490.87 458.669 490.87C461.383 490.87 463.454 490.43 464.884 489.55C466.314 488.67 467.029 487.277 467.029 485.37C467.029 483.94 466.644 482.767 465.874 481.85C465.141 480.933 464.023 480.108 462.519 479.375C461.016 478.642 459.146 477.853 456.909 477.01C453.536 475.763 450.658 474.407 448.274 472.94C445.928 471.473 444.131 469.713 442.884 467.66C441.674 465.57 441.069 463.003 441.069 459.96C441.069 456.807 441.894 454.02 443.544 451.6C445.194 449.18 447.541 447.292 450.584 445.935C453.628 444.578 457.239 443.9 461.419 443.9C464.903 443.9 468.019 444.285 470.769 445.055C473.556 445.825 476.123 446.87 478.469 448.19L477.259 459.85C474.803 458.127 472.328 456.715 469.834 455.615C467.341 454.478 464.609 453.91 461.639 453.91C459.293 453.91 457.478 454.387 456.194 455.34C454.911 456.293 454.269 457.65 454.269 459.41C454.269 461.537 455.168 463.132 456.964 464.195C458.761 465.258 461.639 466.56 465.599 468.1C468.166 469.09 470.384 470.117 472.254 471.18C474.161 472.243 475.738 473.417 476.984 474.7C478.231 475.983 479.148 477.45 479.734 479.1C480.358 480.713 480.669 482.583 480.669 484.71C480.669 488.193 479.826 491.163 478.139 493.62C476.489 496.04 474.051 497.892 470.824 499.175C467.634 500.458 463.729 501.1 459.109 501.1ZM516.8 500V423H544.19C550.093 423 555.08 423.88 559.15 425.64C563.22 427.4 566.3 430.113 568.39 433.78C570.517 437.447 571.58 442.14 571.58 447.86C571.58 453.653 570.535 458.438 568.445 462.215C566.355 465.955 563.293 468.742 559.26 470.575C555.227 472.372 550.313 473.27 544.52 473.27H530.88V500H516.8ZM530.88 461.5H542.87C547.673 461.5 551.267 460.418 553.65 458.255C556.07 456.092 557.28 452.7 557.28 448.08C557.28 443.46 556.052 440.087 553.595 437.96C551.175 435.833 547.49 434.77 542.54 434.77H530.88V461.5ZM598.167 501.1C594.721 501.1 591.916 500.403 589.752 499.01C587.589 497.58 585.994 495.765 584.967 493.565C583.941 491.365 583.427 489.073 583.427 486.69V456.22H575.617L576.827 445H583.427V432.9L597.067 431.47V445H609.167V456.22H597.067V481.08C597.067 483.867 597.232 485.883 597.562 487.13C597.892 488.34 598.644 489.11 599.817 489.44C600.991 489.733 602.861 489.88 605.427 489.88H609.167L607.957 501.1H598.167ZM622.45 526.62L634.66 496.37L611.78 445H626.96L641.04 480.42L655.34 445H670.52L636.09 526.62H622.45ZM703.929 500V423H718.009V487.46H749.689V500H703.929ZM772.728 501.1C769.281 501.1 766.476 500.403 764.313 499.01C762.15 497.58 760.555 495.765 759.528 493.565C758.501 491.365 757.988 489.073 757.988 486.69V456.22H750.178L751.388 445H757.988V432.9L771.628 431.47V445H783.728V456.22H771.628V481.08C771.628 483.867 771.793 485.883 772.123 487.13C772.453 488.34 773.205 489.11 774.378 489.44C775.551 489.733 777.421 489.88 779.988 489.88H783.728L782.518 501.1H772.728ZM814.83 501.1C809.257 501.1 804.564 499.798 800.75 497.195C796.974 494.592 794.114 491.127 792.17 486.8C790.264 482.473 789.31 477.743 789.31 472.61C789.31 467.477 790.264 462.747 792.17 458.42C794.114 454.093 796.974 450.628 800.75 448.025C804.564 445.422 809.257 444.12 814.83 444.12C818.864 444.12 822.274 444.798 825.06 446.155C827.847 447.475 830.304 449.18 832.43 451.27L829.13 454.13V417.5H842.77V500H829.9L829.24 490.65L833.2 493.51C830.634 495.857 827.975 497.708 825.225 499.065C822.475 500.422 819.01 501.1 814.83 501.1ZM816.81 489.88C819.817 489.88 822.274 489.147 824.18 487.68C826.087 486.213 827.499 484.197 828.415 481.63C829.332 479.027 829.79 476.02 829.79 472.61C829.79 469.2 829.332 466.212 828.415 463.645C827.499 461.042 826.087 459.007 824.18 457.54C822.274 456.073 819.817 455.34 816.81 455.34C813.95 455.34 811.512 456.073 809.495 457.54C807.479 459.007 805.939 461.042 804.875 463.645C803.812 466.212 803.28 469.2 803.28 472.61C803.28 476.02 803.812 479.027 804.875 481.63C805.939 484.197 807.479 486.213 809.495 487.68C811.512 489.147 813.95 489.88 816.81 489.88Z" fill="white"/>
</g>
<defs>
<clipPath id="clip0_10_2">
<rect width="922" height="519" fill="white"/>
</clipPath>
</defs>
</svg>
